<?xml version="1.0" standalone="no"?>
<svg xmlns:xlink="http://www.w3.org/1999/xlink" id="wave" style="transform:rotate(180deg); transition: 0.3s" viewBox="0 0 1440 100" version="1.1" xmlns="http://www.w3.org/2000/svg"><defs><linearGradient id="sw-gradient-0" x1="0" x2="0" y1="1" y2="0"><stop stop-color="rgba(255, 249, 234, 1)" offset="0%"/><stop stop-color="rgba(255, 249, 234, 1)" offset="100%"/></linearGradient></defs><path style="transform:translate(0, 0px); opacity:1" fill="url(#sw-gradient-0)" d="M0,30L21.8,40C43.6,50,87,70,131,80C174.5,90,218,90,262,80C305.5,70,349,50,393,41.7C436.4,33,480,37,524,43.3C567.3,50,611,60,655,63.3C698.2,67,742,63,785,58.3C829.1,53,873,47,916,38.3C960,30,1004,20,1047,23.3C1090.9,27,1135,43,1178,51.7C1221.8,60,1265,60,1309,56.7C1352.7,53,1396,47,1440,50C1483.6,53,1527,67,1571,75C1614.5,83,1658,87,1702,78.3C1745.5,70,1789,50,1833,46.7C1876.4,43,1920,57,1964,66.7C2007.3,77,2051,83,2095,73.3C2138.2,63,2182,37,2225,31.7C2269.1,27,2313,43,2356,43.3C2400,43,2444,27,2487,21.7C2530.9,17,2575,23,2618,33.3C2661.8,43,2705,57,2749,56.7C2792.7,57,2836,43,2880,38.3C2923.6,33,2967,37,3011,35C3054.5,33,3098,27,3120,23.3L3141.8,20L3141.8,100L3120,100C3098.2,100,3055,100,3011,100C2967.3,100,2924,100,2880,100C2836.4,100,2793,100,2749,100C2705.5,100,2662,100,2618,100C2574.5,100,2531,100,2487,100C2443.6,100,2400,100,2356,100C2312.7,100,2269,100,2225,100C2181.8,100,2138,100,2095,100C2050.9,100,2007,100,1964,100C1920,100,1876,100,1833,100C1789.1,100,1745,100,1702,100C1658.2,100,1615,100,1571,100C1527.3,100,1484,100,1440,100C1396.4,100,1353,100,1309,100C1265.5,100,1222,100,1178,100C1134.5,100,1091,100,1047,100C1003.6,100,960,100,916,100C872.7,100,829,100,785,100C741.8,100,698,100,655,100C610.9,100,567,100,524,100C480,100,436,100,393,100C349.1,100,305,100,262,100C218.2,100,175,100,131,100C87.3,100,44,100,22,100L0,100Z"/></svg>