<?xml version="1.0" standalone="no"?>
<svg xmlns:xlink="http://www.w3.org/1999/xlink" id="wave" style="transform:rotate(180deg); transition: 0.3s" viewBox="0 0 1440 130" version="1.1" xmlns="http://www.w3.org/2000/svg"><defs><linearGradient id="sw-gradient-0" x1="0" x2="0" y1="1" y2="0"><stop stop-color="rgba(0, 0, 0, 1)" offset="0%"/><stop stop-color="rgba(0, 0, 0, 1)" offset="100%"/></linearGradient></defs><path style="transform:translate(0, 0px); opacity:1" fill="url(#sw-gradient-0)" d="M0,65L34.3,73.7C68.6,82,137,100,206,91C274.3,82,343,48,411,43.3C480,39,549,65,617,69.3C685.7,74,754,56,823,45.5C891.4,35,960,30,1029,36.8C1097.1,43,1166,61,1234,65C1302.9,69,1371,61,1440,47.7C1508.6,35,1577,17,1646,23.8C1714.3,30,1783,61,1851,71.5C1920,82,1989,74,2057,73.7C2125.7,74,2194,82,2263,71.5C2331.4,61,2400,30,2469,17.3C2537.1,4,2606,9,2674,21.7C2742.9,35,2811,56,2880,67.2C2948.6,78,3017,78,3086,69.3C3154.3,61,3223,43,3291,43.3C3360,43,3429,61,3497,73.7C3565.7,87,3634,95,3703,84.5C3771.4,74,3840,43,3909,30.3C3977.1,17,4046,22,4114,32.5C4182.9,43,4251,61,4320,65C4388.6,69,4457,61,4526,52C4594.3,43,4663,35,4731,32.5C4800,30,4869,35,4903,36.8L4937.1,39L4937.1,130L4902.9,130C4868.6,130,4800,130,4731,130C4662.9,130,4594,130,4526,130C4457.1,130,4389,130,4320,130C4251.4,130,4183,130,4114,130C4045.7,130,3977,130,3909,130C3840,130,3771,130,3703,130C3634.3,130,3566,130,3497,130C3428.6,130,3360,130,3291,130C3222.9,130,3154,130,3086,130C3017.1,130,2949,130,2880,130C2811.4,130,2743,130,2674,130C2605.7,130,2537,130,2469,130C2400,130,2331,130,2263,130C2194.3,130,2126,130,2057,130C1988.6,130,1920,130,1851,130C1782.9,130,1714,130,1646,130C1577.1,130,1509,130,1440,130C1371.4,130,1303,130,1234,130C1165.7,130,1097,130,1029,130C960,130,891,130,823,130C754.3,130,686,130,617,130C548.6,130,480,130,411,130C342.9,130,274,130,206,130C137.1,130,69,130,34,130L0,130Z"/></svg>